<mxfile host="65bd71144e">
    <diagram id="LKaKQfK8-kJvVLxzSaqW" name="PÃ¡gina-1">
        <mxGraphModel dx="1088" dy="958" grid="1" gridSize="10" guides="1" tooltips="1" connect="1" arrows="1" fold="1" page="1" pageScale="1" pageWidth="1600" pageHeight="1200" background="#ffffff" math="0" shadow="0">
            <root>
                <mxCell id="0"/>
                <mxCell id="1" parent="0"/>
                <mxCell id="2" value="Actor" style="shape=umlActor;verticalLabelPosition=bottom;verticalAlign=top;html=1;fillColor=#76608a;strokeColor=#432D57;fontColor=#ffffff;" vertex="1" parent="1">
                    <mxGeometry x="70" y="70" width="30" height="60" as="geometry"/>
                </mxCell>
                <mxCell id="3" value="" style="endArrow=none;startArrow=none;endFill=0;startFill=0;endSize=8;html=1;verticalAlign=bottom;labelBackgroundColor=none;strokeWidth=3;fillColor=#76608a;strokeColor=#432D57;dashed=1;" edge="1" parent="1">
                    <mxGeometry width="160" relative="1" as="geometry">
                        <mxPoint x="85" y="150" as="sourcePoint"/>
                        <mxPoint x="85" y="610" as="targetPoint"/>
                    </mxGeometry>
                </mxCell>
                <mxCell id="4" value="VPrincipal" style="shape=umlLifeline;perimeter=lifelinePerimeter;whiteSpace=wrap;html=1;container=1;collapsible=0;recursiveResize=0;outlineConnect=0;fillColor=#008a00;strokeColor=#005700;fontColor=#ffffff;" vertex="1" parent="1">
                    <mxGeometry x="370" y="180" width="100" height="300" as="geometry"/>
                </mxCell>
                <mxCell id="5" value="" style="html=1;points=[];perimeter=orthogonalPerimeter;fillColor=#008a00;strokeColor=#005700;fontColor=#ffffff;" vertex="1" parent="4">
                    <mxGeometry x="45" y="90" width="10" height="120" as="geometry"/>
                </mxCell>
                <mxCell id="6" value="ControlGUI" style="shape=umlLifeline;perimeter=lifelinePerimeter;whiteSpace=wrap;html=1;container=1;collapsible=0;recursiveResize=0;outlineConnect=0;strokeColor=#3700CC;fillColor=#6a00ff;fontColor=#ffffff;" vertex="1" parent="1">
                    <mxGeometry x="240" y="100" width="100" height="300" as="geometry"/>
                </mxCell>
                <mxCell id="7" value="" style="shape=umlDestroy;dashed=0;" vertex="1" parent="6">
                    <mxGeometry x="30" y="280" width="40" height="40" as="geometry"/>
                </mxCell>
                <mxCell id="8" value="Create" style="html=1;verticalAlign=bottom;labelBackgroundColor=none;endArrow=open;endFill=0;fontColor=#006600;strokeWidth=3;fillColor=#6a00ff;strokeColor=#3700CC;" edge="1" parent="6">
                    <mxGeometry width="160" relative="1" as="geometry">
                        <mxPoint x="50" y="100" as="sourcePoint"/>
                        <mxPoint x="130" y="100" as="targetPoint"/>
                    </mxGeometry>
                </mxCell>
                <mxCell id="9" value="" style="html=1;points=[];perimeter=orthogonalPerimeter;fillColor=#6a00ff;strokeColor=#3700CC;fontColor=#ffffff;" vertex="1" parent="6">
                    <mxGeometry x="45" y="70" width="10" height="170" as="geometry"/>
                </mxCell>
            </root>
        </mxGraphModel>
    </diagram>
</mxfile>